<svg width="25" height="89" viewBox="0 0 25 89" fill="none" xmlns="http://www.w3.org/2000/svg">
<path d="M4.74191 0.2131C4.06449 0.68898 6.76401 5.29351 10.5369 12.809C12.7301 17.161 14.6129 21.6626 16.1713 26.2801C18.0332 31.8325 19.1024 37.6198 19.3475 43.4709C19.543 49.2693 18.675 55.0545 16.7863 60.5401C15.2515 65.1321 13.2948 69.572 10.9413 73.8031C9.24242 76.8363 7.66135 79.3038 6.43477 81.2014C6.34242 80.3096 6.24419 79.4365 6.13574 78.6046C5.85524 76.4517 5.52496 74.5179 5.16626 72.8992C4.44884 69.6616 3.61751 67.6839 2.84244 67.7336C2.06737 67.7832 1.49531 69.8508 1.1969 73.1535C1.04768 74.8048 0.966859 76.7649 0.963354 78.9359C0.961623 80.0214 0.979209 81.1597 1.01715 82.3384C1.04089 82.9276 1.06505 83.5266 1.08961 84.1354L1.13753 85.0538C1.15205 85.2451 1.14043 85.2575 1.18403 85.684C1.21912 85.983 1.29011 86.2767 1.39546 86.5587C1.57661 87.0451 1.87061 87.4816 2.25331 87.8323C2.63601 88.183 3.09647 88.4379 3.59684 88.576C3.91731 88.6652 4.24854 88.7097 4.58117 88.7083C4.77824 88.7081 4.97507 88.6949 5.17041 88.6688L5.47583 88.6231C5.85444 88.562 6.22066 88.4869 6.5736 88.4021C7.23641 88.2383 7.89018 88.0398 8.53218 87.8075C9.74202 87.3686 10.7442 86.9389 11.7543 86.5117C13.7497 85.6562 15.5207 84.8124 16.9809 84.0269C19.9013 82.4559 21.5783 81.1181 21.3197 80.3857C21.061 79.6534 18.9159 79.6652 15.6565 80.2764C14.0269 80.582 12.1187 81.0374 10.0285 81.6245C9.81454 81.6875 9.58968 81.7537 9.37137 81.8179C11.1572 79.9829 12.8038 78.0173 14.2975 75.9375C17.3177 71.7178 19.7927 67.1335 21.6637 62.2933C24.0659 56.2549 25.1914 49.7844 24.9696 43.2895C24.7129 36.8656 23.3894 30.5291 21.0532 24.5395C19.1822 19.7377 16.8148 15.1444 13.9896 10.8344C9.17123 3.55351 5.32734 -0.208883 4.74191 0.2131Z" fill="#468E0D"/>
</svg>
